<?xml version="1.0" standalone="no"?>
<!DOCTYPE svg PUBLIC "-//W3C//DTD SVG 20010904//EN"
 "http://www.w3.org/TR/2001/REC-SVG-20010904/DTD/svg10.dtd">
<svg version="1.0" xmlns="http://www.w3.org/2000/svg"
 width="500.000000pt" height="500.000000pt" viewBox="0 0 500.000000 500.000000"
 preserveAspectRatio="xMidYMid meet">
<metadata>
Created by potrace 1.11, written by Peter Selinger 2001-2013
</metadata>
<g transform="translate(0.000000,500.000000) scale(0.100000,-0.100000)"
fill="#000000" stroke="none">
<path d="M290 4001 c0 -79 -8 -73 110 -91 136 -22 216 -83 279 -215 17 -36 78
-219 137 -408 58 -188 119 -385 135 -437 17 -52 51 -160 76 -240 24 -80 74
-239 110 -355 78 -253 221 -724 293 -965 28 -96 55 -186 60 -200 5 -14 14 -44
20 -67 l11 -43 79 0 78 0 15 48 c65 203 249 767 398 1217 98 297 206 626 240
730 33 105 71 221 83 258 l22 69 56 -159 c31 -87 113 -320 183 -518 118 -333
251 -713 345 -980 146 -418 204 -585 215 -620 l12 -40 79 -3 80 -3 58 198
c302 1022 644 2117 741 2369 104 270 165 329 370 364 l100 17 0 69 0 69 -517
3 -518 2 0 -70 c0 -79 -11 -70 115 -90 104 -16 158 -37 192 -73 57 -59 54
-102 -28 -437 -65 -264 -223 -837 -319 -1150 -21 -69 -66 -219 -100 -333 -35
-114 -66 -204 -70 -200 -4 4 -29 69 -54 143 -51 145 -130 370 -219 620 -94
265 -237 669 -282 800 -103 296 -255 742 -255 746 0 3 -33 4 -72 2 l-73 -3
-17 -50 c-9 -27 -56 -171 -104 -320 -47 -148 -103 -322 -124 -385 -21 -63
-119 -365 -220 -670 -100 -305 -204 -625 -232 -710 -27 -85 -52 -162 -55 -170
-5 -15 -30 63 -174 545 -176 590 -215 721 -373 1273 -31 107 -56 213 -56 236
0 81 43 109 205 136 l100 16 3 72 3 72 -571 0 -570 0 0 -69z"/>
</g>
</svg>
